<svg width="11" height="14" viewBox="0 0 11 14" fill="none" xmlns="http://www.w3.org/2000/svg">
<path d="M1.54305 0.435303C1.18943 0.435303 0.85029 0.576615 0.600241 0.828152C0.350193 1.07969 0.209717 1.42085 0.209717 1.77657V12.5067C0.209717 12.8625 0.350193 13.2036 0.600241 13.4552C0.85029 13.7067 1.18943 13.848 1.54305 13.848H9.54305C9.89667 13.848 10.2358 13.7067 10.4859 13.4552C10.7359 13.2036 10.8764 12.8625 10.8764 12.5067V4.45911L6.87638 0.435303H1.54305ZM1.54305 1.77657H6.20972V5.12975H9.54305V12.5067H1.54305V1.77657ZM2.87638 7.14165V8.48293H8.20972V7.14165H2.87638ZM2.87638 9.8242V11.1655H6.20972V9.8242H2.87638Z" fill="#727272"/>
</svg>
