<svg width="71" height="71" viewBox="0 0 71 71" fill="none" xmlns="http://www.w3.org/2000/svg">
<circle cx="35.2126" cy="35.1438" r="35" fill="white"/>
<path d="M32.8015 27.8394C32.2287 27.9514 31.6015 28.3226 31.1087 29.193C31.0568 29.2844 30.9874 29.3647 30.9045 29.4293C30.8216 29.4939 30.7268 29.5415 30.6254 29.5694C30.5241 29.5974 30.4183 29.6051 30.314 29.5921C30.2097 29.5791 30.1089 29.5457 30.0175 29.4938C29.9261 29.4419 29.8459 29.3725 29.7813 29.2896C29.7167 29.2067 29.6691 29.1119 29.6411 29.0105C29.6132 28.9092 29.6055 28.8034 29.6185 28.6991C29.6314 28.5948 29.6648 28.494 29.7167 28.4026C30.4223 27.161 31.4255 26.4778 32.4943 26.2698C33.4888 26.082 34.5173 26.2892 35.3615 26.8474C36.1359 27.3594 36.7615 28.1962 36.7807 29.1994C36.8015 30.2474 36.1647 31.193 34.9903 31.8874C34.1935 32.3578 33.8831 32.6778 33.7503 32.8906C33.6383 33.0698 33.6127 33.233 33.6127 33.5978C33.6127 33.81 33.5284 34.0135 33.3784 34.1635C33.2284 34.3136 33.0249 34.3978 32.8127 34.3978C32.6006 34.3978 32.3971 34.3136 32.247 34.1635C32.097 34.0135 32.0127 33.81 32.0127 33.5978C32.0127 33.1626 32.0351 32.6218 32.3919 32.0458C32.7279 31.5066 33.3023 31.0266 34.1759 30.5098C35.0319 30.0026 35.1871 29.521 35.1823 29.233C35.1743 28.9018 34.9551 28.497 34.4783 28.1818C33.9847 27.8553 33.3837 27.7325 32.8015 27.8394ZM33.2127 38.3978C33.531 38.3978 33.8362 38.2714 34.0613 38.0464C34.2863 37.8213 34.4127 37.5161 34.4127 37.1978C34.4127 36.8796 34.2863 36.5744 34.0613 36.3493C33.8362 36.1243 33.531 35.9978 33.2127 35.9978C32.8945 35.9978 32.5892 36.1243 32.3642 36.3493C32.1392 36.5744 32.0127 36.8796 32.0127 37.1978C32.0127 37.5161 32.1392 37.8213 32.3642 38.0464C32.5892 38.2714 32.8945 38.3978 33.2127 38.3978ZM32.8127 21.5978C30.9991 21.5974 29.2169 22.0713 27.643 22.9724C26.0691 23.8735 24.7582 25.1705 23.8404 26.7348C22.9225 28.299 22.4297 30.0761 22.4109 31.8896C22.392 33.7031 22.8477 35.49 23.7327 37.073L22.4607 40.4042C22.3549 40.6812 22.328 40.982 22.3832 41.2733C22.4383 41.5646 22.5733 41.8348 22.7731 42.0539C22.9729 42.2729 23.2296 42.4321 23.5146 42.5138C23.7996 42.5954 24.1017 42.5963 24.3871 42.5162L28.3663 41.401C29.7759 42.0671 31.3172 42.4077 32.8762 42.3976C34.4351 42.3876 35.9719 42.0272 37.3728 41.3431C38.7737 40.659 40.0029 39.6687 40.9694 38.4455C41.936 37.2222 42.6151 35.7974 42.9566 34.2762C43.2982 32.7551 43.2934 31.1766 42.9426 29.6576C42.5917 28.1386 41.9039 26.7179 40.9299 25.5005C39.956 24.2832 38.7208 23.3004 37.3157 22.6249C35.9107 21.9494 34.3717 21.5984 32.8127 21.5978ZM24.0127 31.9978C24.0134 30.0801 24.6406 28.2151 25.7987 26.6866C26.9569 25.1581 28.5826 24.0498 30.4286 23.5302C32.2746 23.0107 34.2398 23.1083 36.0251 23.8084C37.8105 24.5085 39.3183 25.7726 40.3192 27.4084C41.32 29.0442 41.7591 30.9622 41.5697 32.8705C41.3802 34.7789 40.5726 36.5731 39.2696 37.9801C37.9666 39.3872 36.2397 40.3302 34.3515 40.6655C32.4634 41.0009 30.5173 40.7102 28.8095 39.8378L28.5311 39.6938L23.9551 40.9754L25.5055 36.9178L25.3007 36.5818C24.4562 35.2022 24.0103 33.6155 24.0127 31.9978ZM37.5535 47.1978C36.0565 47.1995 34.5768 46.8772 33.216 46.253C31.8553 45.6288 30.6457 44.7176 29.6703 43.5818C30.5892 43.8308 31.5346 43.9688 32.4863 43.993C33.9684 45.0399 35.739 45.6006 37.5535 45.5978C38.9967 45.5978 40.3567 45.2506 41.5567 44.6378L41.8351 44.4938L46.4111 45.7754L44.8607 41.7178L45.0655 41.3818C45.8815 40.0474 46.3535 38.4794 46.3535 36.7978C46.356 35.0211 45.8181 33.2857 44.8111 31.8218C44.798 30.87 44.6718 29.9231 44.4351 29.001C45.5422 29.9758 46.4286 31.1755 47.0353 32.5199C47.642 33.8644 47.9551 35.3228 47.9535 36.7978C47.9535 38.6394 47.4735 40.3706 46.6319 41.873L47.9055 45.2042C48.0112 45.481 48.038 45.7817 47.9829 46.0728C47.9278 46.3638 47.793 46.6339 47.5934 46.8529C47.3939 47.0718 47.1374 47.2311 46.8527 47.3129C46.5679 47.3947 46.2661 47.3959 45.9807 47.3162L41.9999 46.201C40.6511 46.841 39.1423 47.1978 37.5519 47.1978H37.5535Z" fill="#DF6085"/>
</svg>
