<svg width="14" height="16" viewBox="0 0 14 16" fill="none" xmlns="http://www.w3.org/2000/svg">
<path d="M7.66901 1.61305C10.268 1.61305 12.3579 3.71635 12.3579 6.30192C12.3579 8.17747 11.266 9.77839 9.67853 10.5286V13.6701H4.98966V11.6606H4.31982C3.5763 11.6606 2.98014 11.0645 2.98014 10.321V8.31144H1.97538C1.69405 8.31144 1.53329 7.97652 1.69405 7.76887L2.98014 6.07418C3.10741 3.58908 5.14372 1.61305 7.66901 1.61305ZM5.87384 4.55365H7.16663C7.17333 4.35269 7.23362 4.19863 7.35419 4.09146C7.47476 3.99098 7.62212 3.93739 7.79628 3.93739C8.00393 3.93739 8.17809 4.00438 8.29866 4.12495C8.41923 4.25222 8.47282 4.42638 8.47282 4.62733C8.47282 4.84168 8.42593 5.02253 8.31876 5.1766C8.22498 5.33066 8.08431 5.46463 7.91015 5.5718C7.56854 5.79955 7.33409 6.0005 7.20682 6.18135C7.07286 6.35551 6.99917 6.63684 6.99917 6.97176H8.33885C8.33885 6.76411 8.36564 6.59665 8.42593 6.47608C8.48622 6.34881 8.60009 6.23494 8.76755 6.12777C9.06898 5.967 9.31682 5.77275 9.51107 5.50482C9.70532 5.23688 9.8058 4.96225 9.8058 4.62733C9.8058 4.11825 9.62494 3.70965 9.26323 3.40822C8.90821 3.10679 8.41923 2.95273 7.79628 2.95273C7.21352 2.95273 6.74463 3.0867 6.38292 3.34794C6.03461 3.62257 5.86045 4.00438 5.86715 4.53355L5.87384 4.55365ZM6.99917 8.98128H8.33885V7.6416H6.99917V8.98128ZM7.66901 0.273376C4.59445 0.273376 2.04907 2.56422 1.68065 5.5651L0.635706 6.97176H0.615611L0.602214 6.99186C0.233803 7.50094 0.186914 8.17077 0.474945 8.72674C0.716087 9.18893 1.14478 9.51045 1.64046 9.61093V10.321C1.64046 11.5602 2.49786 12.6118 3.64998 12.9132V15.0098H11.0182V11.3257C12.6928 10.2071 13.6976 8.35163 13.6976 6.30192C13.6976 2.97283 10.9914 0.273376 7.66901 0.273376Z" fill="#727272"/>
</svg>
