<svg width="38" height="25" viewBox="0 0 38 25" fill="none" xmlns="http://www.w3.org/2000/svg">
<path d="M7.18923 24.9721C5.18923 24.9721 3.52256 24.2054 2.18923 22.6721C0.922558 21.0721 0.455892 18.8387 0.789226 15.9721C1.25589 11.5721 2.85589 7.97207 5.58922 5.17207C8.38922 2.3054 11.8559 0.87207 15.9892 0.87207C17.3226 0.87207 18.2892 0.972068 18.8892 1.17207L18.0892 5.17207C17.3559 5.03874 16.3226 4.97207 14.9892 4.97207C13.7226 4.97207 12.5226 5.27207 11.3892 5.87207C10.3226 6.47207 9.48922 7.27207 8.88923 8.27207C7.62256 9.73874 6.82256 11.4054 6.48922 13.2721C7.48923 12.2721 8.82256 11.7721 10.4892 11.7721C12.1559 11.7721 13.4892 12.2721 14.4892 13.2721C15.4892 14.2721 15.8892 15.6387 15.6892 17.3721C15.4892 19.5054 14.5559 21.3054 12.8892 22.7721C11.2892 24.2387 9.38923 24.9721 7.18923 24.9721ZM25.5892 24.9721C23.5892 24.9721 21.9226 24.2054 20.5892 22.6721C19.3226 21.0721 18.8559 18.8387 19.1892 15.9721C19.6559 11.5721 21.2559 7.97207 23.9892 5.17207C26.7892 2.3054 30.2559 0.87207 34.3892 0.87207C35.7226 0.87207 36.6892 0.972068 37.2892 1.17207L36.4892 5.17207C35.7559 5.03874 34.7226 4.97207 33.3892 4.97207C32.1226 4.97207 30.9226 5.27207 29.7892 5.87207C28.7226 6.47207 27.8892 7.27207 27.2892 8.27207C26.0226 9.73874 25.2226 11.4054 24.8892 13.2721C25.8892 12.2721 27.2226 11.7721 28.8892 11.7721C30.5559 11.7721 31.8892 12.2721 32.8892 13.2721C33.8892 14.2721 34.2892 15.6387 34.0892 17.3721C33.8892 19.5054 32.9559 21.3054 31.2892 22.7721C29.6892 24.2387 27.7892 24.9721 25.5892 24.9721Z" fill="#EEF2F6"/>
</svg>
