<svg width="24" height="29" viewBox="0 0 24 29" fill="none" xmlns="http://www.w3.org/2000/svg">
<g clip-path="url(#clip0_24_1321)">
<path fill-rule="evenodd" clip-rule="evenodd" d="M12 6.1416C7.58182 6.1416 4 9.72342 4 14.1416C4 18.5598 7.58182 22.1416 12 22.1416C16.4182 22.1416 20 18.5598 20 14.1416C20 9.72342 16.4182 6.1416 12 6.1416ZM15.4676 12.7889C15.5315 12.7159 15.5801 12.6309 15.6106 12.5388C15.6411 12.4468 15.6529 12.3495 15.6453 12.2529C15.6377 12.1562 15.6108 12.062 15.5662 11.9759C15.5217 11.8897 15.4604 11.8134 15.3859 11.7513C15.3114 11.6892 15.2252 11.6427 15.1324 11.6144C15.0397 11.5861 14.9422 11.5766 14.8457 11.5866C14.7493 11.5965 14.6558 11.6256 14.5707 11.6722C14.4857 11.7189 14.4108 11.782 14.3505 11.858L11.2233 15.61L9.60509 13.9911C9.46793 13.8586 9.28422 13.7853 9.09353 13.7869C8.90284 13.7886 8.72043 13.8651 8.58559 13.9999C8.45074 14.1348 8.37426 14.3172 8.3726 14.5079C8.37094 14.6985 8.44425 14.8823 8.57673 15.0194L10.7585 17.2012C10.83 17.2727 10.9156 17.3284 11.0098 17.3649C11.104 17.4014 11.2047 17.4179 11.3057 17.4133C11.4066 17.4088 11.5054 17.3832 11.5959 17.3383C11.6864 17.2934 11.7666 17.2301 11.8313 17.1525L15.4676 12.7889Z" fill="#0073DC"/>
</g>
<defs>
<clipPath id="clip0_24_1321">
<rect width="16" height="16" fill="white" transform="translate(4 6.1416)"/>
</clipPath>
</defs>
</svg>
