<svg width="18" height="19" viewBox="0 0 18 19" fill="none" xmlns="http://www.w3.org/2000/svg">
<path d="M11.25 6.6416V12.6416H3.75V6.6416H11.25ZM12 5.1416H3C2.80109 5.1416 2.61032 5.22062 2.46967 5.36127C2.32902 5.50192 2.25 5.69269 2.25 5.8916V13.3916C2.25 13.5905 2.32902 13.7813 2.46967 13.9219C2.61032 14.0626 2.80109 14.1416 3 14.1416H12C12.1989 14.1416 12.3897 14.0626 12.5303 13.9219C12.671 13.7813 12.75 13.5905 12.75 13.3916V10.7666L15.75 13.7666V5.5166L12.75 8.5166V5.8916C12.75 5.69269 12.671 5.50192 12.5303 5.36127C12.3897 5.22062 12.1989 5.1416 12 5.1416Z" fill="#727272"/>
</svg>
