<svg width="11" height="12" viewBox="0 0 11 12" fill="none" xmlns="http://www.w3.org/2000/svg">
<path d="M0.556947 0.961488C0.744474 0.774016 0.998782 0.668701 1.26395 0.668701C1.52911 0.668701 1.78342 0.774016 1.97095 0.961488L5.50695 4.49749L9.04295 0.961488C9.23155 0.779329 9.48415 0.678535 9.74635 0.680814C10.0085 0.683092 10.2594 0.788261 10.4448 0.973669C10.6302 1.15908 10.7353 1.40989 10.7376 1.67209C10.7399 1.93428 10.6391 2.18689 10.4569 2.37549L6.92095 5.91149L10.4569 9.44749C10.6391 9.63609 10.7399 9.88869 10.7376 10.1509C10.7353 10.4131 10.6302 10.6639 10.4448 10.8493C10.2594 11.0347 10.0085 11.1399 9.74635 11.1422C9.48415 11.1444 9.23155 11.0436 9.04295 10.8615L5.50695 7.32549L1.97095 10.8615C1.78234 11.0436 1.52974 11.1444 1.26755 11.1422C1.00535 11.1399 0.754536 11.0347 0.569128 10.8493C0.38372 10.6639 0.278551 10.4131 0.276273 10.1509C0.273994 9.88869 0.374788 9.63609 0.556947 9.44749L4.09295 5.91149L0.556947 2.37549C0.369475 2.18796 0.26416 1.93365 0.26416 1.66849C0.26416 1.40332 0.369475 1.14902 0.556947 0.961488Z" fill="#F03434"/>
</svg>
